<?xml version="1.0" encoding="UTF-8" standalone="no"?>
<svg
   xmlns:dc="http://purl.org/dc/elements/1.1/"
   xmlns:cc="http://creativecommons.org/ns#"
   xmlns:svg="http://www.w3.org/2000/svg"
   xmlns="http://www.w3.org/2000/svg"
   width="512"
   height="512"
   viewBox="14 14 108 108"
   version="1.1">
  <g
     id="layer1"
     transform="translate(0,-161.53332)">
    <path
       style="fill:#000000;fill-opacity:1;stroke:none;stroke-width:0.26458332;stroke-opacity:1"
       d="m 67.733333,185.34581 c -2.19188,1e-5 -3.96875,1.77688 -3.96875,3.96875 v 79.90418 c 0,2.19187 1.77687,3.96874 3.96875,3.96875 2.19188,-1e-5 3.96875,-1.77688 3.96875,-3.96875 v -79.90418 c 0,-2.19187 -1.77687,-3.96874 -3.96875,-3.96875 z"
       id="rect910" />
    <path
       style="color:#000000;font-style:normal;font-variant:normal;font-weight:normal;font-stretch:normal;font-size:medium;line-height:normal;font-family:sans-serif;font-variant-ligatures:normal;font-variant-position:normal;font-variant-caps:normal;font-variant-numeric:normal;font-variant-alternates:normal;font-feature-settings:normal;text-indent:0;text-align:start;text-decoration:none;text-decoration-line:none;text-decoration-style:solid;text-decoration-color:#000000;letter-spacing:normal;word-spacing:normal;text-transform:none;writing-mode:lr-tb;direction:ltr;text-orientation:mixed;dominant-baseline:auto;baseline-shift:baseline;text-anchor:start;white-space:normal;shape-padding:0;clip-rule:nonzero;display:inline;overflow:visible;visibility:visible;opacity:1;isolation:auto;mix-blend-mode:normal;color-interpolation:sRGB;color-interpolation-filters:linearRGB;solid-color:#000000;solid-opacity:1;vector-effect:none;fill:#000000;fill-opacity:1;fill-rule:nonzero;stroke:none;stroke-width:7.9375;stroke-linecap:round;stroke-linejoin:round;stroke-miterlimit:4;stroke-dasharray:none;stroke-dashoffset:0;stroke-opacity:1;color-rendering:auto;image-rendering:auto;shape-rendering:auto;text-rendering:auto;enable-background:accumulate"
       d="m 51.754814,195.92973 a 3.9691469,3.9691469 0 0 0 -3.556641,2.46094 l -24.076172,58.73828 a 3.9691469,3.9691469 0 0 0 3.671875,5.47266 H 51.84661 a 3.9691469,3.9691469 0 0 0 3.96875,-3.9668 l 0.02344,-58.73633 a 3.9691469,3.9691469 0 0 0 -4.083984,-3.96875 z m -3.861329,24.13477 -0.01367,34.59961 H 33.709892 Z"
       id="path1082" />
    <path
       style="color:#000000;font-style:normal;font-variant:normal;font-weight:normal;font-stretch:normal;font-size:medium;line-height:normal;font-family:sans-serif;font-variant-ligatures:normal;font-variant-position:normal;font-variant-caps:normal;font-variant-numeric:normal;font-variant-alternates:normal;font-feature-settings:normal;text-indent:0;text-align:start;text-decoration:none;text-decoration-line:none;text-decoration-style:solid;text-decoration-color:#000000;letter-spacing:normal;word-spacing:normal;text-transform:none;writing-mode:lr-tb;direction:ltr;text-orientation:mixed;dominant-baseline:auto;baseline-shift:baseline;text-anchor:start;white-space:normal;shape-padding:0;clip-rule:nonzero;display:inline;overflow:visible;visibility:visible;opacity:1;isolation:auto;mix-blend-mode:normal;color-interpolation:sRGB;color-interpolation-filters:linearRGB;solid-color:#000000;solid-opacity:1;vector-effect:none;fill:#060606;fill-opacity:1;fill-rule:nonzero;stroke:none;stroke-width:30;stroke-linecap:round;stroke-linejoin:round;stroke-miterlimit:4;stroke-dasharray:none;stroke-dashoffset:0;stroke-opacity:1;color-rendering:auto;image-rendering:auto;shape-rendering:auto;text-rendering:auto;enable-background:accumulate"
       d="M 316.4375 130.01172 A 15.0015 15.0015 0 0 0 301.00391 145.01172 L 301.0918 367.00781 A 15.0015 15.0015 0 0 0 316.0918 382 L 407 382 A 15.0015 15.0015 0 0 0 420.87891 361.31641 L 329.88086 139.3125 A 15.0015 15.0015 0 0 0 316.43945 130.01172 A 15.0015 15.0015 0 0 1 316.4375 130.01172 z "
       transform="matrix(0.26458333,0,0,0.26458333,0,161.53332)"
       id="path1086" />
  </g>
</svg>