<?xml version="1.0" encoding="UTF-8" standalone="no"?>
<!-- Created with Inkscape (http://www.inkscape.org/) -->

<svg
   xmlns:dc="http://purl.org/dc/elements/1.1/"
   xmlns:cc="http://creativecommons.org/ns#"
   xmlns:rdf="http://www.w3.org/1999/02/22-rdf-syntax-ns#"
   xmlns:svg="http://www.w3.org/2000/svg"
   xmlns="http://www.w3.org/2000/svg"
   xmlns:sodipodi="http://sodipodi.sourceforge.net/DTD/sodipodi-0.dtd"
   xmlns:inkscape="http://www.inkscape.org/namespaces/inkscape"
   width="512"
   height="512"
   viewBox="0 0 135.46666 135.46667"
   version="1.1"
   id="svg24"
   sodipodi:docname="R_Rotate_90.svg"
   inkscape:version="0.92.2 (5c3e80d, 2017-08-06)">
  <defs
     id="defs18" />
  <sodipodi:namedview
     id="base"
     pagecolor="#e6e6e6"
     bordercolor="#ea1e2d"
     borderopacity="1"
     inkscape:pageopacity="0"
     inkscape:pageshadow="2"
     inkscape:zoom="1.3513522"
     inkscape:cx="339.16887"
     inkscape:cy="275.30038"
     inkscape:document-units="px"
     inkscape:current-layer="layer1"
     showgrid="false"
     showguides="true"
     inkscape:guide-bbox="true"
     guidecolor="#1e8bea"
     guideopacity="1"
     guidehicolor="#e61c35"
     guidehiopacity="0.49803922"
     objecttolerance="14"
     guidetolerance="14"
     inkscape:snap-perpendicular="true"
     inkscape:snap-tangential="true"
     units="px"
     inkscape:showpageshadow="false"
     borderlayer="true"
     showborder="true"
     inkscape:window-width="1920"
     inkscape:window-height="1029"
     inkscape:window-x="-4"
     inkscape:window-y="-4"
     inkscape:window-maximized="1"
     inkscape:lockguides="true"
     inkscape:object-paths="true"
     inkscape:snap-intersection-paths="true"
     inkscape:snap-smooth-nodes="true"
     inkscape:snap-midpoints="true"
     inkscape:snap-object-midpoints="true"
     inkscape:snap-center="true"
     inkscape:snap-page="true"
     inkscape:snap-grids="true"
     inkscape:measure-start="256,422"
     inkscape:measure-end="256,407"
     inkscape:snap-global="true">
    <inkscape:grid
       type="xygrid"
       id="grid825" />
  </sodipodi:namedview>
  <metadata
     id="metadata21">
    <rdf:RDF>
      <cc:Work
         rdf:about="">
        <dc:format>image/svg+xml</dc:format>
        <dc:type
           rdf:resource="http://purl.org/dc/dcmitype/StillImage" />
        <dc:title />
      </cc:Work>
    </rdf:RDF>
  </metadata>
  <g
     inkscape:label="Layer 1"
     inkscape:groupmode="layer"
     id="layer1"
     transform="translate(0,-161.53332)">
    <path
       style="fill:#000000;fill-opacity:1;stroke-width:0.21320795"
       d="m 94.536381,187.99357 9.768779,18.96311 -21.296974,-1.21124 2.88205,-4.43797 a 33.337497,33.337497 0 0 0 -46.116083,9.80227 33.337497,33.337497 0 0 0 9.802275,46.11609 33.337497,33.337497 0 0 0 46.116083,-9.80228 l 8.875929,5.7641 A 43.920833,43.920833 0 0 1 43.812328,266.10176 43.920833,43.920833 0 0 1 30.898223,205.34565 43.920833,43.920833 0 0 1 91.654331,192.43154 Z"
       id="path4634"
       inkscape:connector-curvature="0" />
    <path
       style="fill:#000000;fill-opacity:1;stroke-width:0.99999994"
       d="M 70 20 C 42.300001 20 20 42.300001 20 70 L 20 442 C 20 469.7 42.300001 492 70 492 L 442 492 C 469.7 492 492 469.7 492 442 L 492 70 C 492 42.300001 469.7 20 442 20 L 70 20 z M 80 50 L 432 50 C 448.62 50 462 63.38 462 80 L 462 432 C 462 448.62 448.62 462 432 462 L 80 462 C 63.38 462 50 448.62 50 432 L 50 80 C 50 63.38 63.38 50 80 50 z "
       transform="matrix(0.26458333,0,0,0.26458333,0,161.53332)"
       id="rect4629" />
    <flowRoot
       xml:space="preserve"
       id="flowRoot4660"
       style="line-height:1.25;fill:#040000;fill-opacity:1;-inkscape-font-specification:'PT Sans Caption Bold';font-family:'PT Sans Caption';font-weight:bold;font-style:normal;font-stretch:normal;font-variant:normal;font-size:72px;"><flowRegion
         id="flowRegion4662"
         style="font-size:72px;"><rect
           id="rect4664"
           width="463"
           height="314"
           x="-565"
           y="118"
           style="font-size:72px;" /></flowRegion><flowPara
         id="flowPara4666" /></flowRoot>    <flowRoot
       xml:space="preserve"
       id="flowRoot4692"
       style="line-height:1.25;fill:#040000;fill-opacity:1;-inkscape-font-specification:'PT Sans Caption Bold';font-family:'PT Sans Caption';font-weight:bold;font-style:normal;font-stretch:normal;font-variant:normal;font-size:72px"><flowRegion
         id="flowRegion4694"><rect
           id="rect4696"
           width="122"
           height="87"
           x="-768"
           y="93" /></flowRegion><flowPara
         id="flowPara4698" /></flowRoot>    <flowRoot
       xml:space="preserve"
       id="flowRoot4708"
       style="font-style:normal;font-variant:normal;font-weight:bold;font-stretch:normal;font-size:144px;line-height:1em;font-family:'PT Sans Caption';-inkscape-font-specification:'PT Sans Caption Bold';fill:#040000;fill-opacity:1"
       transform="matrix(0.26458333,0,0,0.26458333,164.21435,186.40415)"><flowRegion
         id="flowRegion4710"
         style="line-height:1em"><rect
           id="rect4712"
           width="288"
           height="217"
           x="-507"
           y="103"
           style="line-height:1em" /></flowRegion><flowPara
         id="flowPara4714"
         style="font-size:140px;text-align:center;text-anchor:middle">90°</flowPara></flowRoot>    <flowRoot
       xml:space="preserve"
       id="flowRoot4716"
       style="line-height:1em;fill:#040000;fill-opacity:1;-inkscape-font-specification:'PT Sans Caption Bold';font-family:'PT Sans Caption';font-weight:bold;font-style:normal;font-stretch:normal;font-variant:normal;font-size:144px"><flowRegion
         id="flowRegion4718"><rect
           id="rect4720"
           width="274"
           height="332"
           x="-544"
           y="160" /></flowRegion><flowPara
         id="flowPara4722" /></flowRoot>  </g>
</svg>
