<?xml version="1.0" encoding="UTF-8" standalone="no"?>
<svg
   xmlns:dc="http://purl.org/dc/elements/1.1/"
   xmlns:cc="http://creativecommons.org/ns#"
   xmlns:svg="http://www.w3.org/2000/svg"
   xmlns="http://www.w3.org/2000/svg"
   width="512"
   height="512"
   version="1.1">
  <g
     id="layer1"
     transform="translate(0,-161.53332)">
    <path
       style="fill:#000000;fill-opacity:1;stroke:none;stroke-width:36.14457703;stroke-linecap:round;stroke-linejoin:round;stroke-miterlimit:4;stroke-dasharray:none;stroke-opacity:1"
       d="M 190 90 A 99.999996 99.999996 0 0 0 90 190 A 99.999996 99.999996 0 0 0 190 290 A 99.999996 99.999996 0 0 0 249.0332 270.58203 L 260.46094 282.01172 L 257.00781 299.60742 C 284.07509 300.16585 329.8815 365.46275 370.60938 413.21289 C 382.32515 424.92863 401.32137 424.92859 413.03711 413.21289 C 424.75281 401.49715 424.75285 382.50285 413.03711 370.78711 C 365.28698 330.05922 299.99007 284.25083 299.43164 257.18359 L 281.83398 260.63867 L 270.42773 249.23047 A 99.999996 99.999996 0 0 0 290 190 A 99.999996 99.999996 0 0 0 190 90 z M 190 110 A 79.999999 79.999999 0 0 1 270 190 A 79.999999 79.999999 0 0 1 190 270 A 79.999999 79.999999 0 0 1 110 190 A 79.999999 79.999999 0 0 1 190 110 z "
       transform="matrix(0.26458333,0,0,0.26458333,0,161.53332)"
       id="path40" />
    <path
       transform="rotate(-90.000043)"
       style="fill:#000000;fill-opacity:1;stroke:none;stroke-width:8.87439442;stroke-linecap:round;stroke-linejoin:round;stroke-miterlimit:4;stroke-dasharray:none;stroke-opacity:1"
       d="m -214.45001,37.041504 h 5.29166 v 26.458332 h -5.29166 z"
       id="rect926" />
  </g>
</svg>