<?xml version="1.0" encoding="UTF-8" standalone="no"?>
<!-- Created with Inkscape (http://www.inkscape.org/) -->

<svg
   xmlns:dc="http://purl.org/dc/elements/1.1/"
   xmlns:cc="http://creativecommons.org/ns#"
   xmlns:rdf="http://www.w3.org/1999/02/22-rdf-syntax-ns#"
   xmlns:svg="http://www.w3.org/2000/svg"
   xmlns="http://www.w3.org/2000/svg"
   xmlns:sodipodi="http://sodipodi.sourceforge.net/DTD/sodipodi-0.dtd"
   xmlns:inkscape="http://www.inkscape.org/namespaces/inkscape"
   width="512"
   height="512"
   viewBox="0 0 135.46666 135.46667"
   version="1.1"
   id="svg24"
   sodipodi:docname="_Zoom_In.svg"
   inkscape:version="0.92.2 (5c3e80d, 2017-08-06)">
  <defs
     id="defs18" />
  <sodipodi:namedview
     id="base"
     pagecolor="#e6e6e6"
     bordercolor="#ea1e2d"
     borderopacity="1"
     inkscape:pageopacity="0"
     inkscape:pageshadow="2"
     inkscape:zoom="1"
     inkscape:cx="591.84402"
     inkscape:cy="226.67273"
     inkscape:document-units="px"
     inkscape:current-layer="layer1"
     showgrid="false"
     showguides="true"
     inkscape:guide-bbox="true"
     guidecolor="#1e8bea"
     guideopacity="1"
     guidehicolor="#e61c35"
     guidehiopacity="0.49803922"
     objecttolerance="14"
     guidetolerance="14"
     inkscape:snap-perpendicular="true"
     inkscape:snap-tangential="true"
     units="px"
     inkscape:showpageshadow="false"
     borderlayer="true"
     showborder="true"
     inkscape:window-width="1920"
     inkscape:window-height="1029"
     inkscape:window-x="-4"
     inkscape:window-y="-4"
     inkscape:window-maximized="1"
     inkscape:lockguides="true"
     inkscape:object-paths="false"
     inkscape:snap-intersection-paths="true"
     inkscape:snap-smooth-nodes="true"
     inkscape:snap-midpoints="true"
     inkscape:snap-object-midpoints="true"
     inkscape:snap-center="true"
     inkscape:snap-page="true"
     inkscape:snap-grids="true"
     inkscape:measure-start="422,256"
     inkscape:measure-end="462,256"
     inkscape:snap-global="true"
     inkscape:object-nodes="true">
    <inkscape:grid
       type="xygrid"
       id="grid825" />
  </sodipodi:namedview>
  <metadata
     id="metadata21">
    <rdf:RDF>
      <cc:Work
         rdf:about="">
        <dc:format>image/svg+xml</dc:format>
        <dc:type
           rdf:resource="http://purl.org/dc/dcmitype/StillImage" />
        <dc:title></dc:title>
      </cc:Work>
    </rdf:RDF>
  </metadata>
  <g
     inkscape:label="Layer 1"
     inkscape:groupmode="layer"
     id="layer1"
     transform="translate(0,-161.53332)">
    <path
       style="fill:#000000;fill-opacity:1;stroke-width:0.99999994"
       d="M 70 20 C 42.300001 20 20 42.300001 20 70 L 20 442 C 20 469.7 42.300001 492 70 492 L 442 492 C 469.7 492 492 469.7 492 442 L 492 70 C 492 42.300001 469.7 20 442 20 L 70 20 z M 80 50 L 432 50 C 448.62 50 462 63.38 462 80 L 462 432 C 462 448.62 448.62 462 432 462 L 80 462 C 63.38 462 50 448.62 50 432 L 50 80 C 50 63.38 63.38 50 80 50 z "
       transform="matrix(0.26458333,0,0,0.26458333,0,161.53332)"
       id="rect4629" />
    <flowRoot
       xml:space="preserve"
       id="flowRoot4660"
       style="line-height:1.25;fill:#040000;fill-opacity:1;-inkscape-font-specification:'PT Sans Caption Bold';font-family:'PT Sans Caption';font-weight:bold;font-style:normal;font-stretch:normal;font-variant:normal;font-size:72px;"><flowRegion
         id="flowRegion4662"
         style="font-size:72px;"><rect
           id="rect4664"
           width="463"
           height="314"
           x="-565"
           y="118"
           style="font-size:72px;" /></flowRegion><flowPara
         id="flowPara4666" /></flowRoot>    <flowRoot
       xml:space="preserve"
       id="flowRoot4692"
       style="line-height:1.25;fill:#040000;fill-opacity:1;-inkscape-font-specification:'PT Sans Caption Bold';font-family:'PT Sans Caption';font-weight:bold;font-style:normal;font-stretch:normal;font-variant:normal;font-size:72px"><flowRegion
         id="flowRegion4694"><rect
           id="rect4696"
           width="122"
           height="87"
           x="-768"
           y="93" /></flowRegion><flowPara
         id="flowPara4698" /></flowRoot>    <flowRoot
       xml:space="preserve"
       id="flowRoot4716"
       style="line-height:1em;fill:#040000;fill-opacity:1;-inkscape-font-specification:'PT Sans Caption Bold';font-family:'PT Sans Caption';font-weight:bold;font-style:normal;font-stretch:normal;font-variant:normal;font-size:144px"><flowRegion
         id="flowRegion4718"><rect
           id="rect4720"
           width="274"
           height="332"
           x="-544"
           y="160" /></flowRegion><flowPara
         id="flowPara4722" /></flowRoot>    <path
       style="fill:#000000;fill-opacity:1;stroke:none;stroke-width:36.14457703;stroke-linecap:round;stroke-linejoin:round;stroke-miterlimit:4;stroke-dasharray:none;stroke-opacity:1"
       d="M 190 90 A 99.999996 99.999996 0 0 0 90 190 A 99.999996 99.999996 0 0 0 190 290 A 99.999996 99.999996 0 0 0 249.0332 270.58203 L 260.46094 282.01172 L 257.00781 299.60742 C 284.07509 300.16585 329.8815 365.46275 370.60938 413.21289 C 382.32515 424.92863 401.32137 424.92859 413.03711 413.21289 C 424.75281 401.49715 424.75285 382.50285 413.03711 370.78711 C 365.28698 330.05922 299.99007 284.25083 299.43164 257.18359 L 281.83398 260.63867 L 270.42773 249.23047 A 99.999996 99.999996 0 0 0 290 190 A 99.999996 99.999996 0 0 0 190 90 z M 190 110 A 79.999999 79.999999 0 0 1 270 190 A 79.999999 79.999999 0 0 1 190 270 A 79.999999 79.999999 0 0 1 110 190 A 79.999999 79.999999 0 0 1 190 110 z "
       transform="matrix(0.26458333,0,0,0.26458333,0,161.53332)"
       id="path40" />
    <path
       style="fill:#000000;fill-opacity:1;stroke:none;stroke-width:33.54101944;stroke-linecap:round;stroke-linejoin:round;stroke-miterlimit:4;stroke-dasharray:none;stroke-opacity:1"
       d="M 180 140 L 180 180 L 140 180 L 140 200 L 180 200 L 180 240 L 200 240 L 200 200 L 240 200 L 240 180 L 200 180 L 200 140 L 180 140 z "
       transform="matrix(0.26458333,0,0,0.26458333,0,161.53332)"
       id="rect911" />
  </g>
</svg>
